<svg width="16" height="17" viewBox="0 0 16 17" fill="none" xmlns="http://www.w3.org/2000/svg">
<path d="M14.5556 6.24976L11.9536 4.83476C11.6471 4.66793 11.3965 4.41845 11.2287 4.1133L9.79211 1.50121C9.3978 0.783764 8.67346 0.355591 7.855 0.355591C7.03654 0.355591 6.3122 0.783764 5.91789 1.50121L4.48127 4.1133C4.31349 4.41845 4.06286 4.66793 3.75656 4.83457L1.15442 6.24995C0.431617 6.64311 0 7.36917 0 8.19203C0 9.0149 0.431617 9.74096 1.15442 10.1343L3.75637 11.5493C4.06286 11.7161 4.31349 11.9656 4.48127 12.2708L5.91789 14.8829C6.3122 15.6003 7.03654 16.0285 7.855 16.0285C8.67346 16.0285 9.3978 15.6003 9.79211 14.8829L11.2287 12.2708C11.3965 11.9656 11.6471 11.7161 11.9534 11.5495L14.5556 10.1341C15.2784 9.74096 15.71 9.0149 15.71 8.19203C15.71 7.36917 15.2784 6.64311 14.5556 6.24976Z" fill="#891AEE"/>
</svg>
