<svg width="15" height="17" viewBox="0 0 15 17" fill="none" xmlns="http://www.w3.org/2000/svg">
<path fill-rule="evenodd" clip-rule="evenodd" d="M7.65735 16.5875C7.92179 16.6756 8.19499 16.7292 8.47732 16.7292C9.65314 16.7292 10.709 15.9643 11.1448 14.8559C11.1367 14.8422 11.13 14.8274 11.1249 14.8115C10.9382 14.228 10.2749 13.9486 9.72692 14.2226L9.48263 14.3447C9.37589 14.3981 9.24609 14.3548 9.19272 14.2481C9.13935 14.1414 9.18262 14.0116 9.28936 13.9582L9.53366 13.836C10.2712 13.4673 11.1544 13.7982 11.4805 14.5326C12.6461 14.0396 13.4561 12.8654 13.5429 11.552C13.5394 11.5366 13.5376 11.5206 13.5376 11.5041C13.5376 11.2361 13.4386 10.9382 13.2992 10.6562C13.0497 10.1516 12.4551 9.91854 11.8337 9.99015C11.7151 10.0038 11.6079 9.91878 11.5943 9.80023C11.5806 9.68167 11.6656 9.57449 11.7842 9.56083C12.5207 9.47596 13.3302 9.74397 13.6866 10.4647C13.7824 10.6585 13.8698 10.8761 13.9214 11.1015C14.2999 10.6276 14.5129 10.0313 14.5129 9.38421C14.5129 8.95696 14.4113 8.53074 14.2244 8.15418C14.5632 7.6928 14.7326 7.16313 14.7326 6.60036L14.7337 6.59933C14.7337 5.74364 14.3301 4.97375 13.6789 4.51015C13.5313 5.32791 12.8768 5.98143 12.0295 6.10679L12.0132 6.1092C11.8951 6.12667 11.7853 6.04512 11.7678 5.92707C11.7503 5.80902 11.8319 5.69916 11.9499 5.68169L11.9662 5.67928C12.7199 5.56778 13.278 4.92094 13.278 4.1591C13.278 4.14296 13.2798 4.12723 13.2832 4.11209C13.041 2.72987 11.8932 1.66057 10.5124 1.61198C10.0545 0.911624 9.30904 0.484375 8.49478 0.484375C8.20623 0.484375 7.92722 0.540385 7.65735 0.645711V16.5875ZM7.22519 0.698686C6.92364 0.559261 6.58998 0.484375 6.25633 0.484375C5.4431 0.484375 4.68018 0.911624 4.23865 1.61198C2.86047 1.66147 1.71442 2.7259 1.45405 4.11963C1.59682 4.89172 2.21514 5.49177 2.99675 5.60741C3.11481 5.62488 3.19635 5.73474 3.17888 5.85279C3.16142 5.97084 3.05156 6.05238 2.9335 6.03492C2.07077 5.90727 1.36919 5.30154 1.10435 4.49337C0.424121 4.9527 0 5.73972 0 6.61691C0 7.18072 0.169415 7.71038 0.491833 8.15418C0.304954 8.52971 0.203306 8.95696 0.203306 9.38421C0.203306 10.0168 0.415722 10.6192 0.793297 11.0971C0.845019 10.8733 0.931923 10.6573 1.02716 10.4647C1.3835 9.74397 2.19304 9.47596 2.92953 9.56083C3.04808 9.57449 3.13311 9.68167 3.11945 9.80023C3.10579 9.91878 2.99861 10.0038 2.88006 9.99015C2.25864 9.91854 1.66405 10.1516 1.41456 10.6562C1.27511 10.9382 1.17615 11.2361 1.17615 11.5041C1.17615 11.5174 1.17496 11.5303 1.17268 11.5429C1.25534 12.8559 2.05911 14.0074 3.18993 14.5116C3.52412 13.7294 4.47887 13.3905 5.24093 13.826L5.38767 13.9098C5.49128 13.969 5.52728 14.101 5.46808 14.2046C5.40887 14.3083 5.27687 14.3443 5.17326 14.2851L5.02652 14.2012C4.45713 13.8758 3.73448 14.1664 3.54717 14.7925C3.96626 15.935 5.04078 16.7292 6.23887 16.7292C6.56741 16.7292 6.89595 16.6625 7.22519 16.5298V0.698686ZM9.90412 9.69001C9.97606 9.5948 9.9572 9.45929 9.86198 9.38735C9.76677 9.31541 9.63126 9.33428 9.55932 9.42949C8.81316 10.417 8.97833 11.8173 9.93378 12.6041L10.1129 12.7517C10.2051 12.8275 10.3412 12.8144 10.4171 12.7222C10.493 12.6301 10.4798 12.4939 10.3877 12.4181L10.2085 12.2705C9.43186 11.6309 9.29761 10.4928 9.90412 9.69001ZM5.66941 4.71955C5.74101 4.62408 5.72166 4.48864 5.62619 4.41704L5.52835 4.34365C4.86432 3.84563 4.90719 2.83617 5.61107 2.39625C5.71227 2.333 5.74303 2.19969 5.67978 2.0985C5.61653 1.9973 5.48322 1.96653 5.38202 2.02978C4.42073 2.63059 4.36217 4.00922 5.26905 4.68938L5.3669 4.76277C5.46237 4.83437 5.59781 4.81502 5.66941 4.71955ZM4.97841 9.69001C4.90647 9.5948 4.92534 9.45929 5.02056 9.38735C5.11577 9.31541 5.25128 9.33428 5.32322 9.42949C6.06937 10.417 5.90421 11.8173 4.94876 12.6041L4.76959 12.7517C4.67747 12.8275 4.54129 12.8144 4.46542 12.7222C4.38956 12.6301 4.40274 12.4939 4.49486 12.4181L4.67403 12.2705C5.45067 11.6309 5.58493 10.4928 4.97841 9.69001ZM8.78977 4.73053C8.71211 4.63992 8.7226 4.50351 8.81321 4.42584L8.91447 4.33905C9.52568 3.81515 9.48331 2.85676 8.82824 2.38885C8.73113 2.31949 8.70864 2.18453 8.778 2.08742C8.84736 1.99031 8.98232 1.96782 9.07943 2.03719C9.96283 2.66819 10.02 3.96065 9.19572 4.66717L9.09445 4.75396C9.00385 4.83163 8.86744 4.82113 8.78977 4.73053Z" fill="#455468"/>
</svg>
