<svg width="79" height="76" viewBox="0 0 79 76" fill="none" xmlns="http://www.w3.org/2000/svg">
<g opacity="0.5" filter="url(#filter0_d_448_17908)">
<ellipse cx="37.1774" cy="35.7373" rx="35.1696" ry="33.7373" fill="#F6F8FA"/>
<path fill-rule="evenodd" clip-rule="evenodd" d="M37.2504 49.8176C37.6692 49.9323 38.0999 50 38.5428 50C40.6518 50 42.5503 48.737 43.3787 46.892C43.3371 46.8453 43.3043 46.7904 43.2834 46.7288C42.9635 45.7885 41.8271 45.3382 40.8882 45.7797L40.4405 45.9903C40.1861 46.1099 39.8767 46.0129 39.7495 45.7736C39.6223 45.5343 39.7254 45.2433 39.9798 45.1237L40.4275 44.9131C41.8405 44.2486 43.5326 44.8449 44.1573 46.1685C46.1643 45.3227 47.5728 43.4326 47.8058 41.2984C47.7413 41.2183 47.7031 41.1176 47.7031 41.0075C47.7031 40.5698 47.5292 40.0718 47.2746 39.5892C46.8404 38.7661 45.81 38.3794 44.695 38.5003C44.4137 38.5308 44.1657 38.3382 44.1413 38.0702C44.1168 37.8022 44.325 37.5603 44.6064 37.5298C45.9879 37.38 47.5093 37.8401 48.1904 39.1314C48.3581 39.4493 48.5146 39.8082 48.6146 40.1842C49.2486 39.3869 49.6032 38.4032 49.6032 37.34C49.6032 36.6036 49.417 35.8689 49.0745 35.2199C49.6955 34.4246 50.0059 33.5117 50.0059 32.5417L50.0078 32.5399C50.0078 31.1067 49.3094 29.8131 48.1749 29.0079C47.8714 30.4362 46.6401 31.581 45.0684 31.7997L45.0265 31.8055C44.7452 31.8447 44.4884 31.661 44.4527 31.3952C44.417 31.1295 44.6161 30.8823 44.8973 30.8432L44.9393 30.8373C46.2431 30.6559 47.2204 29.5865 47.2204 28.3413C47.2204 28.2389 47.2538 28.1433 47.3108 28.0639C46.7938 25.7736 44.7353 24.0251 42.2723 23.9436C41.4331 22.7364 40.067 22 38.5748 22C38.1206 22 37.6793 22.0712 37.2504 22.2064V49.8176ZM36.2504 22.3703C35.6972 22.1294 35.085 22 34.4728 22C32.9825 22 31.5844 22.7364 30.7753 23.9436C28.355 24.0253 26.3253 25.7137 25.7404 27.9685L25.7651 28.1259C25.975 29.4629 27.0949 30.5222 28.5061 30.7186C28.7873 30.7577 28.9864 31.0049 28.9507 31.2706C28.915 31.5364 28.6582 31.7201 28.3769 31.681C26.7721 31.4576 25.4519 30.3909 24.9361 28.9724C23.7455 29.7718 23.0078 31.0972 23.0078 32.5702C23.0078 33.542 23.3183 34.4549 23.9091 35.2199C23.5667 35.8672 23.3804 36.6036 23.3804 37.34C23.3804 38.3806 23.7349 39.3738 24.3686 40.1782C24.4686 39.8044 24.6243 39.4477 24.7912 39.1314C25.4723 37.8401 26.9936 37.38 28.3752 37.5298C28.6566 37.5603 28.8648 37.8022 28.8403 38.0702C28.8159 38.3382 28.5679 38.5308 28.2866 38.5003C27.1715 38.3794 26.1412 38.7661 25.707 39.5892C25.4524 40.0718 25.2785 40.5698 25.2785 41.0075C25.2785 41.1167 25.2409 41.2166 25.1774 41.2964C25.4075 43.4222 26.8024 45.2719 28.747 46.1318C29.3875 44.7244 31.2147 44.1148 32.6733 44.8987L32.9422 45.0432C33.1892 45.176 33.275 45.4719 33.1338 45.7042C32.9927 45.9365 32.6781 46.0172 32.4311 45.8845L32.1622 45.74C31.1789 45.2115 29.9292 45.6901 29.6181 46.7143C29.6069 46.7513 29.5913 46.7861 29.5722 46.8183C30.3814 48.7033 32.3038 50 34.4408 50C35.0436 50 35.6463 49.8848 36.2504 49.6555V22.3703ZM41.2335 37.9557C41.4065 37.7404 41.3721 37.4257 41.1569 37.2528C40.9416 37.0798 40.6269 37.1142 40.4539 37.3294C39.0606 39.064 39.3604 41.6041 41.1193 42.9666L41.4879 43.2521C41.7062 43.4212 42.0203 43.3813 42.1894 43.1629C42.3585 42.9446 42.3186 42.6306 42.1003 42.4615L41.7317 42.176C40.4149 41.156 40.1904 39.2543 41.2335 37.9557ZM33.4912 29.3646C33.6504 29.139 33.5965 28.827 33.3708 28.6678L33.2057 28.5514C32.0952 27.768 32.1645 26.0993 33.336 25.4106C33.5741 25.2706 33.6536 24.9642 33.5137 24.7261C33.3737 24.4881 33.0673 24.4086 32.8292 24.5485C31.0313 25.6054 30.9251 28.1663 32.6293 29.3685L32.7944 29.485C33.02 29.6442 33.332 29.5903 33.4912 29.3646ZM32.0592 37.9557C31.8863 37.7404 31.9206 37.4257 32.1359 37.2528C32.3512 37.0798 32.6659 37.1142 32.8389 37.3294C34.2322 39.064 33.9324 41.6041 32.1734 42.9666L31.8049 43.2521C31.5866 43.4212 31.2725 43.3813 31.1034 43.1629C30.9343 42.9446 30.9742 42.6306 31.1925 42.4615L31.5611 42.176C32.8779 41.156 33.1024 39.2543 32.0592 37.9557ZM39.029 29.3902C38.8557 29.1752 38.8894 28.8605 39.1044 28.6871L39.2766 28.5483C40.3049 27.7193 40.2358 26.1312 39.1394 25.3946C38.9102 25.2406 38.8492 24.9299 39.0032 24.7007C39.1572 24.4715 39.4678 24.4105 39.6971 24.5645C41.3527 25.6769 41.4571 28.0749 39.9042 29.3269L39.732 29.4657C39.5171 29.639 39.2023 29.6052 39.029 29.3902Z" fill="#455468"/>
</g>
<defs>
<filter id="filter0_d_448_17908" x="0.0078125" y="0" width="78.3359" height="75.4766" filterUnits="userSpaceOnUse" color-interpolation-filters="sRGB">
<feFlood flood-opacity="0" result="BackgroundImageFix"/>
<feColorMatrix in="SourceAlpha" type="matrix" values="0 0 0 0 0 0 0 0 0 0 0 0 0 0 0 0 0 0 127 0" result="hardAlpha"/>
<feOffset dx="2" dy="2"/>
<feGaussianBlur stdDeviation="2"/>
<feComposite in2="hardAlpha" operator="out"/>
<feColorMatrix type="matrix" values="0 0 0 0 0 0 0 0 0 0 0 0 0 0 0 0 0 0 0.15 0"/>
<feBlend mode="normal" in2="BackgroundImageFix" result="effect1_dropShadow_448_17908"/>
<feBlend mode="normal" in="SourceGraphic" in2="effect1_dropShadow_448_17908" result="shape"/>
</filter>
</defs>
</svg>
