<svg width="11" height="16" viewBox="0 0 11 16" fill="none" xmlns="http://www.w3.org/2000/svg">
<path d="M2.58005 4.52252C2.58005 4.42536 2.54767 4.3444 2.4829 4.26343C2.15904 3.84242 1.99711 3.30805 2.04569 2.70891C2.14284 1.72114 2.93629 0.927691 3.92406 0.798147C5.25188 0.636218 6.38538 1.65637 6.38538 2.9518C6.38538 3.43759 6.22345 3.891 5.94817 4.26343C5.89959 4.32821 5.85102 4.42536 5.85102 4.52252C5.85102 4.91115 6.33681 5.07307 6.5797 4.76541C6.96833 4.26343 7.17884 3.6481 7.17884 2.968C7.17884 1.21917 5.65671 -0.189618 3.85929 0.0208901C2.4829 0.182819 1.39797 1.30013 1.25223 2.66033C1.17127 3.45378 1.41416 4.19866 1.85137 4.76541C2.09426 5.07307 2.58005 4.89495 2.58005 4.52252Z" fill="#891AEE"/>
<path d="M9.47824 7.2591C9.13819 7.21052 8.81434 7.35626 8.60383 7.58296C8.49048 7.14575 8.10185 6.82189 7.63226 6.82189C7.32459 6.82189 7.04931 6.96763 6.87119 7.17814C6.74164 6.77331 6.3692 6.48183 5.9158 6.48183C5.64052 6.48183 5.39763 6.59519 5.20332 6.77331V2.98417C5.20332 2.48219 4.84708 2.02878 4.3451 1.94782C3.72977 1.86685 3.21159 2.35265 3.21159 2.93559V9.67184C3.21159 9.80138 3.03347 9.86615 2.9687 9.7528L1.80281 7.98778C1.52753 7.58296 0.92839 7.4858 0.474989 7.79346C0.0215876 8.10113 -0.140338 8.68407 0.134942 9.0889C0.134942 9.0889 3.38971 14.0115 3.4059 14.0277C3.98885 14.8536 4.94423 15.3556 5.99677 15.3556H7.16266C8.8953 15.3556 10.3365 13.963 10.3527 12.2303C10.3527 12.2141 10.3527 12.1817 10.3527 12.1655V8.29544C10.3365 7.79346 9.98022 7.32387 9.47824 7.2591Z" fill="#891AEE"/>
</svg>
