<svg width="16" height="14" viewBox="0 0 16 14" fill="none" xmlns="http://www.w3.org/2000/svg">
<path fill-rule="evenodd" clip-rule="evenodd" d="M8.40773 11.5086C8.98025 11.4744 9.16159 11.3936 9.49849 11.2436L9.51023 11.2384C9.54732 11.2224 9.58574 11.2054 9.62673 11.1872L9.62675 11.1872C9.76879 11.1242 9.94168 11.0475 10.1971 10.9559C10.2103 10.9448 10.2103 10.9448 10.2346 10.947C10.4825 11.0547 10.7855 11.0937 11.0706 11.0577L12.8849 10.7769C13.2827 10.714 13.6448 10.5009 13.8695 10.1775C14.1074 9.84313 14.2037 9.44716 14.1408 9.04938C14.1125 8.85628 14.0369 8.66573 13.9276 8.49384C13.8724 8.47699 13.794 8.46084 13.687 8.45036C13.5074 8.43278 13.2824 8.43424 13.0224 8.4527C12.503 8.48955 11.8813 8.59126 11.2766 8.71298C10.6738 8.83429 10.0971 8.97357 9.67049 9.08274C9.54761 9.11418 9.43735 9.14308 9.34268 9.16828C9.28443 9.37533 9.27109 9.59275 9.30554 9.81071C9.34592 10.0472 9.43709 10.2636 9.57906 10.46L9.45612 10.5131C9.35283 10.5578 9.27137 10.593 9.197 10.6223C9.0049 10.7157 8.9033 10.7557 8.70441 10.7871L8.67925 9.54696C8.68033 9.5348 8.67809 9.52541 8.67586 9.51602C8.67362 9.50663 8.67139 9.49724 8.67247 9.48508L7.45742 3.54333C7.54442 3.47046 7.62573 3.46193 7.68656 3.45554L7.69817 3.45431L7.89342 3.74122C7.9846 3.95765 8.3804 4.88741 8.72407 5.29777L8.72408 5.29778C8.77951 5.36396 8.83494 5.43015 8.89252 5.47201C9.02688 5.56717 9.16638 5.63681 9.31001 5.67662C9.43386 5.67051 9.54222 5.65912 9.64206 5.63832C9.70943 5.61728 9.77875 5.59586 9.84978 5.57416C10.0104 5.50383 10.1561 5.38076 10.3127 5.14582C10.3538 5.08421 10.3934 4.97133 10.4098 4.78704C10.4258 4.60708 10.4174 4.38628 10.3867 4.13322C10.3253 3.62717 10.1804 3.03355 10.0102 2.45889C9.8406 1.88662 9.64935 1.34459 9.50011 0.944828C9.42559 0.745216 9.36177 0.581704 9.31671 0.468388L9.30873 0.44835C9.14032 0.295708 8.97479 0.183419 8.81522 0.108887C7.87699 -0.307015 6.36352 0.564267 5.41325 1.11133L5.32702 1.16094C5.11952 1.28968 4.95174 1.38515 4.85014 1.42519C4.60724 1.53854 4.30956 1.85541 3.7915 4.24873C3.57275 5.19768 3.41589 6.13985 3.35931 6.50256L0.15852 8.46253C0.0680095 8.51581 0.0107577 8.6088 0.00215384 8.7061C-0.00645004 8.80339 0.00927058 8.90284 0.0757887 8.98226L3.95601 13.6153C4.07796 13.7609 4.29687 13.7803 4.44248 13.6583L4.79989 13.359L6.81163 11.539L8.40773 11.5086ZM9.64945 8.37605C9.4442 8.27625 9.26647 8.15054 9.12418 7.98065C8.96898 7.79533 8.86672 7.56566 8.83743 7.34244C8.79995 7.08196 8.83658 6.82803 8.9463 6.59209C9.081 6.54589 9.25617 6.4869 9.46153 6.42018C9.5726 6.38409 9.69238 6.34578 9.81927 6.30604L9.84567 6.29988C9.92825 6.27996 10.0073 6.25505 10.0832 6.22453C10.4645 6.10846 10.8933 5.98527 11.3341 5.87249C12.0393 5.69204 12.763 5.54139 13.3668 5.48638C13.669 5.45883 13.9292 5.45645 14.1361 5.48178C14.1806 5.48723 14.2209 5.49377 14.2574 5.5011C14.2452 5.50558 14.2329 5.50994 14.2206 5.51418C14.3246 5.58466 14.4266 5.67948 14.5042 5.77214C14.6594 5.95746 14.7616 6.18713 14.7909 6.41034C14.8517 6.83245 14.7178 7.23735 14.3936 7.57639C14.3071 7.66693 14.2074 7.75041 14.0987 7.82482C13.9871 7.79341 13.8695 7.77475 13.7542 7.76347C13.5215 7.74069 13.2543 7.74432 12.9735 7.76425C12.4113 7.80415 11.7566 7.91234 11.1404 8.03637C10.5908 8.14698 10.0643 8.27173 9.64945 8.37605ZM15.3616 3.83782C15.4217 4.26885 15.2662 4.7197 14.9416 5.05596C14.7411 4.89985 14.479 4.82843 14.22 4.79672C13.9462 4.7632 13.6325 4.76912 13.3041 4.79905C12.6466 4.85897 11.8818 5.01992 11.163 5.20385C11.116 5.21587 11.0692 5.228 11.0226 5.24021C11.0627 5.11414 11.0855 4.98073 11.0973 4.84814C11.119 4.60348 11.1059 4.33091 11.0718 4.05017C11.0433 3.81466 10.9991 3.56611 10.9445 3.31336L10.9925 3.30342C11.3926 3.22083 11.9357 3.11687 12.5093 3.03074C13.0847 2.94435 13.6825 2.8772 14.1947 2.86582C14.3855 2.86158 14.5604 2.86519 14.7152 2.87756C15.069 3.11728 15.2909 3.44507 15.3616 3.83782ZM10.7799 2.64265L10.853 2.62749C11.2609 2.54328 11.817 2.43677 12.4069 2.34821C12.874 2.27807 13.3677 2.21837 13.8287 2.1906C13.8714 1.99296 13.8776 1.7816 13.8461 1.5711C13.7225 0.751209 13.0136 0.173732 12.2799 0.292706L10.7507 0.537439C10.54 0.565083 10.3453 0.65965 10.1793 0.791366C10.3268 1.19065 10.5086 1.71183 10.6719 2.26282C10.7089 2.38776 10.7451 2.51475 10.7799 2.64265Z" fill="#891AEE"/>
</svg>
