<svg width="359" height="180" viewBox="0 0 359 180" fill="none" xmlns="http://www.w3.org/2000/svg">
<path d="M359 179.5C359 131.894 340.088 86.2371 306.426 52.5743C272.763 18.9116 227.106 3.59418e-06 179.5 0C131.894 -3.59418e-06 86.2371 18.9115 52.5743 52.5743C18.9116 86.2371 7.18836e-06 131.894 0 179.5L50.5594 179.5C50.5595 145.303 64.1442 112.506 88.3253 88.3252C112.506 64.1442 145.303 50.5594 179.5 50.5594C213.697 50.5595 246.494 64.1442 270.675 88.3253C294.856 112.506 308.441 145.303 308.441 179.5H359Z" fill="url(#paint0_linear_315_21915)"/>
<defs>
<linearGradient id="paint0_linear_315_21915" x1="24.5" y1="180" x2="329.5" y2="180" gradientUnits="userSpaceOnUse">
<stop stop-color="#D8B2FA"/>
<stop offset="1" stop-color="#891AEE"/>
</linearGradient>
</defs>
</svg>
