<svg width="79" height="76" viewBox="0 0 79 76" fill="none" xmlns="http://www.w3.org/2000/svg">
<g filter="url(#filter0_d_448_17756)">
<ellipse cx="37.1774" cy="35.7373" rx="35.1696" ry="33.7373" fill="#F6F8FA"/>
<path d="M34.5335 49.4583C31.4524 49.4583 28.9453 46.9142 28.9453 43.7877C28.9453 43.0683 29.5209 42.4843 30.2298 42.4843C30.9387 42.4843 31.5142 43.0683 31.5142 43.7877C31.5142 45.4772 32.8686 46.8515 34.5335 46.8515C36.1984 46.8515 37.5528 45.4772 37.5528 43.7877C37.5528 43.4412 37.6341 42.8902 38.0194 42.2319C38.3072 41.7418 38.8063 41.105 39.5185 40.2388L39.7607 39.9435C40.8874 38.5757 42.2906 36.8714 43.2661 35.1407C43.9295 33.961 44.253 33.0371 44.253 32.3161C44.253 28.754 41.3963 25.8552 37.8861 25.8552C34.3758 25.8552 31.5207 28.754 31.5207 32.3161C31.5207 33.0354 30.9452 33.6195 30.2363 33.6195C29.5274 33.6195 28.9518 33.0354 28.9518 32.3161C28.9518 27.317 32.9596 23.25 37.8861 23.25C42.8125 23.25 46.8203 27.317 46.8203 32.3161C46.8203 33.5172 46.3992 34.8256 45.4968 36.4325C44.4091 38.3662 42.8613 40.2438 41.7313 41.6148L41.4907 41.9068C40.985 42.5239 40.4387 43.2036 40.2257 43.565C40.1477 43.7003 40.1249 43.786 40.12 43.8091C40.1086 46.9258 37.6064 49.4583 34.5319 49.4583H34.5335Z" fill="#455468"/>
<path d="M32.963 43.0833C32.2634 43.0833 31.6953 42.4981 31.6953 41.7773C31.6953 41.0565 32.2634 40.4712 32.963 40.4712C34.8661 40.4712 36.4146 38.8759 36.4146 36.9151C36.4146 35.2636 35.2801 33.8021 33.7172 33.4434L32.4976 33.1623L32.7512 31.9026C33.2663 29.3516 35.3331 27.5 37.6679 27.5C40.4407 27.5 42.6953 29.8311 42.6953 32.6961C42.6953 33.4169 42.1273 34.0021 41.4276 34.0021C40.728 34.0021 40.1599 33.4169 40.1599 32.6961C40.1599 31.271 39.0415 30.1121 37.6679 30.1121C36.8671 30.1121 36.1033 30.623 35.6348 31.3983C37.6165 32.4283 38.9484 34.5593 38.9484 36.9151C38.9484 40.3158 36.2622 43.0833 32.9614 43.0833H32.963Z" fill="#455468"/>
</g>
<defs>
<filter id="filter0_d_448_17756" x="0.0078125" y="0" width="78.3359" height="75.4766" filterUnits="userSpaceOnUse" color-interpolation-filters="sRGB">
<feFlood flood-opacity="0" result="BackgroundImageFix"/>
<feColorMatrix in="SourceAlpha" type="matrix" values="0 0 0 0 0 0 0 0 0 0 0 0 0 0 0 0 0 0 127 0" result="hardAlpha"/>
<feOffset dx="2" dy="2"/>
<feGaussianBlur stdDeviation="2"/>
<feComposite in2="hardAlpha" operator="out"/>
<feColorMatrix type="matrix" values="0 0 0 0 0 0 0 0 0 0 0 0 0 0 0 0 0 0 0.15 0"/>
<feBlend mode="normal" in2="BackgroundImageFix" result="effect1_dropShadow_448_17756"/>
<feBlend mode="normal" in="SourceGraphic" in2="effect1_dropShadow_448_17756" result="shape"/>
</filter>
</defs>
</svg>
