<svg width="79" height="76" viewBox="0 0 79 76" fill="none" xmlns="http://www.w3.org/2000/svg">
<g opacity="0.5" filter="url(#filter0_d_448_17914)">
<ellipse cx="37.5133" cy="35.7373" rx="35.1696" ry="33.7373" fill="#F6F8FA"/>
<path d="M34.8694 49.4583C31.7884 49.4583 29.2812 46.9142 29.2812 43.7877C29.2812 43.0683 29.8568 42.4843 30.5657 42.4843C31.2746 42.4843 31.8502 43.0683 31.8502 43.7877C31.8502 45.4772 33.2045 46.8515 34.8694 46.8515C36.5343 46.8515 37.8887 45.4772 37.8887 43.7877C37.8887 43.4412 37.97 42.8902 38.3553 42.2319C38.6431 41.7418 39.1423 41.105 39.8544 40.2388L40.0966 39.9435C41.2234 38.5757 42.6265 36.8714 43.602 35.1407C44.2654 33.961 44.589 33.0371 44.589 32.3161C44.589 28.754 41.7323 25.8552 38.222 25.8552C34.7117 25.8552 31.8566 28.754 31.8566 32.3161C31.8566 33.0354 31.2811 33.6195 30.5722 33.6195C29.8633 33.6195 29.2878 33.0354 29.2878 32.3161C29.2878 27.317 33.2956 23.25 38.222 23.25C43.1484 23.25 47.1562 27.317 47.1562 32.3161C47.1562 33.5172 46.7351 34.8256 45.8328 36.4325C44.745 38.3662 43.1972 40.2438 42.0672 41.6148L41.8266 41.9068C41.3209 42.5239 40.7746 43.2036 40.5616 43.565C40.4836 43.7003 40.4608 43.786 40.456 43.8091C40.4446 46.9258 37.9423 49.4583 34.8678 49.4583H34.8694Z" fill="#455468"/>
<path d="M33.2989 43.0833C32.5993 43.0833 32.0312 42.4981 32.0312 41.7773C32.0312 41.0565 32.5993 40.4712 33.2989 40.4712C35.2021 40.4712 36.7506 38.8759 36.7506 36.9151C36.7506 35.2636 35.6161 33.8021 34.0531 33.4434L32.8336 33.1623L33.0871 31.9026C33.6022 29.3516 35.669 27.5 38.0038 27.5C40.7767 27.5 43.0312 29.8311 43.0312 32.6961C43.0312 33.4169 42.4632 34.0021 41.7636 34.0021C41.0639 34.0021 40.4959 33.4169 40.4959 32.6961C40.4959 31.271 39.3774 30.1121 38.0038 30.1121C37.2031 30.1121 36.4393 30.623 35.9707 31.3983C37.9525 32.4283 39.2843 34.5593 39.2843 36.9151C39.2843 40.3158 36.5981 43.0833 33.2973 43.0833H33.2989Z" fill="#455468"/>
</g>
<defs>
<filter id="filter0_d_448_17914" x="0.34375" y="0" width="78.3359" height="75.4766" filterUnits="userSpaceOnUse" color-interpolation-filters="sRGB">
<feFlood flood-opacity="0" result="BackgroundImageFix"/>
<feColorMatrix in="SourceAlpha" type="matrix" values="0 0 0 0 0 0 0 0 0 0 0 0 0 0 0 0 0 0 127 0" result="hardAlpha"/>
<feOffset dx="2" dy="2"/>
<feGaussianBlur stdDeviation="2"/>
<feComposite in2="hardAlpha" operator="out"/>
<feColorMatrix type="matrix" values="0 0 0 0 0 0 0 0 0 0 0 0 0 0 0 0 0 0 0.15 0"/>
<feBlend mode="normal" in2="BackgroundImageFix" result="effect1_dropShadow_448_17914"/>
<feBlend mode="normal" in="SourceGraphic" in2="effect1_dropShadow_448_17914" result="shape"/>
</filter>
</defs>
</svg>
