<svg width="21" height="22" viewBox="0 0 21 22" fill="none" xmlns="http://www.w3.org/2000/svg">
<path d="M9.1308 19.3095C7.19405 19.3095 5.61809 17.7573 5.61809 15.8498C5.61809 15.4109 5.97989 15.0546 6.42549 15.0546C6.8711 15.0546 7.2329 15.4109 7.2329 15.8498C7.2329 16.8806 8.08424 17.7191 9.1308 17.7191C10.1774 17.7191 11.0287 16.8806 11.0287 15.8498C11.0287 15.6384 11.0798 15.3022 11.322 14.9006C11.5029 14.6016 11.8167 14.2131 12.2643 13.6846L12.4166 13.5044C13.1249 12.6699 14.0069 11.6301 14.6201 10.5742C15.0371 9.85447 15.2405 9.29077 15.2405 8.85088C15.2405 6.67762 13.4448 4.90901 11.2382 4.90901C9.03166 4.90901 7.23698 6.67762 7.23698 8.85088C7.23698 9.28976 6.87519 9.64611 6.42958 9.64611C5.98398 9.64611 5.62218 9.28976 5.62218 8.85088C5.62218 5.80087 8.14147 3.31958 11.2382 3.31958C14.335 3.31958 16.8543 5.80087 16.8543 8.85088C16.8543 9.58369 16.5895 10.3819 16.0223 11.3624C15.3386 12.5421 14.3656 13.6876 13.6553 14.5241L13.5041 14.7023C13.1862 15.0788 12.8428 15.4935 12.7089 15.7139C12.6599 15.7965 12.6455 15.8488 12.6425 15.8629C12.6353 17.7644 11.0624 19.3095 9.12977 19.3095H9.1308Z" fill="#455468"/>
<path d="M8.14361 15.4201C7.70382 15.4201 7.34674 15.0631 7.34674 14.6233C7.34674 14.1835 7.70382 13.8265 8.14361 13.8265C9.33991 13.8265 10.3133 12.8531 10.3133 11.6569C10.3133 10.6492 9.60015 9.75757 8.61769 9.53869L7.85109 9.36723L8.01045 8.59863C8.33424 7.04229 9.63344 5.9126 11.1011 5.9126C12.8441 5.9126 14.2613 7.33479 14.2613 9.08279C14.2613 9.52256 13.9042 9.87962 13.4644 9.87962C13.0247 9.87962 12.6676 9.52256 12.6676 9.08279C12.6676 8.21333 11.9645 7.50627 11.1011 7.50627C10.5977 7.50627 10.1176 7.81794 9.82307 8.291C11.0688 8.91939 11.906 10.2195 11.906 11.6569C11.906 13.7317 10.2175 15.4201 8.1426 15.4201H8.14361Z" fill="#455468"/>
</svg>
