<svg width="42" height="40" viewBox="0 0 42 40" fill="none" xmlns="http://www.w3.org/2000/svg">
<ellipse cx="20.8491" cy="20" rx="20.8491" ry="20" fill="#F6F8FA"/>
<path d="M19.632 19.632H20.5V25.764H21.368M20.5 31C26.296 31 31 26.296 31 20.5C31 14.704 26.296 10 20.5 10C14.704 10 10 14.704 10 20.5C10 26.296 14.704 31 20.5 31ZM20.5 16.314C20.85 16.314 21.13 16.034 21.13 15.684C21.13 15.334 20.85 15.054 20.5 15.054C20.15 15.054 19.87 15.334 19.87 15.684C19.87 16.034 20.15 16.314 20.5 16.314Z" stroke="#8393A8" stroke-width="1.4" stroke-linecap="round" stroke-linejoin="round"/>
</svg>
