<svg width="16" height="17" viewBox="0 0 16 17" fill="none" xmlns="http://www.w3.org/2000/svg">
<path d="M7.79149 12.3308C7.3137 11.8302 6.60839 11.5799 5.88033 11.6254C4.2877 11.7392 2.71782 11.1477 1.62573 10.0556C0.23787 8.6677 -0.308176 6.71104 0.169614 4.79988C0.215117 4.59512 0.374381 4.4131 0.579148 4.3676C0.783914 4.3221 0.988681 4.3676 1.14794 4.52687L3.21836 6.59729C3.44588 6.82481 3.7189 6.93856 4.03743 6.93856C4.35596 6.93856 4.62898 6.82481 4.8565 6.59729L5.78932 5.66446C6.24436 5.20942 6.24436 4.48136 5.78932 4.02632L3.60515 1.84214C3.44588 1.70563 3.40038 1.50087 3.44588 1.2961C3.49139 1.09133 3.6279 0.932072 3.83266 0.863817C5.81208 0.226765 7.95075 0.727304 9.42962 2.20617C10.6355 3.41202 11.2043 5.05016 11.0223 6.73379C10.9312 7.50736 11.2043 8.25817 11.7276 8.78146L15.7546 12.8085C15.9139 12.9678 15.9139 13.2408 15.7546 13.4001C15.6864 13.4683 12.4101 16.6536 12.2964 16.6536C12.1826 16.6536 12.0916 16.6309 12.0006 16.5398L7.79149 12.3308Z" fill="#891AEE"/>
</svg>
