<svg width="21" height="21" viewBox="0 0 21 21" fill="none" xmlns="http://www.w3.org/2000/svg">
<path d="M13.829 16.1549C13.4699 15.7317 12.8333 15.6755 12.411 16.0353C11.6673 16.6669 10.7227 17.0135 9.74642 17.0135C7.4654 17.0135 5.61386 15.1572 5.61386 12.8727C5.61386 12.0458 5.85358 11.2506 6.31264 10.5688C6.62174 10.1078 6.50136 9.47711 6.03516 9.1674C5.57508 8.85769 4.94566 8.9783 4.63656 9.44543C3.95613 10.4614 3.59093 11.6482 3.59093 12.8799C3.59093 16.2755 6.35039 19.0404 9.73927 19.0404C11.195 19.0404 12.5997 18.5232 13.7086 17.5818C14.1371 17.2158 14.1871 16.578 13.828 16.1549H13.829Z" fill="#455468"/>
<path d="M7.6188 7.11548L7.62493 11.5659C7.62493 12.0648 8.03399 12.4746 8.53182 12.4746H14.0569L15.5187 17.0825C15.6381 17.4679 15.9971 17.7142 16.3817 17.7142C16.4695 17.7142 16.5644 17.7019 16.6592 17.6703C17.1316 17.519 17.3968 17.0079 17.2448 16.5336L15.582 11.2879C15.4626 10.9087 15.1097 10.6562 14.7189 10.6562H9.43363V8.93287H12.9551C13.4591 8.93287 13.862 8.52912 13.862 8.02418C13.862 7.51923 13.4591 7.11548 12.9551 7.11548H9.43363" fill="#455468"/>
<path d="M8.50477 6.32561C9.55721 6.32561 10.4104 5.47075 10.4104 4.41622C10.4104 3.3617 9.55721 2.50684 8.50477 2.50684C7.45233 2.50684 6.59917 3.3617 6.59917 4.41622C6.59917 5.47075 7.45233 6.32561 8.50477 6.32561Z" fill="#455468"/>
</svg>
