<svg width="79" height="76" viewBox="0 0 79 76" fill="none" xmlns="http://www.w3.org/2000/svg">
<g opacity="0.5" filter="url(#filter0_d_448_17926)">
<ellipse cx="37.5055" cy="35.7373" rx="35.1696" ry="33.7373" fill="#F6F8FA"/>
<path d="M43.3381 45.4329C42.7149 44.6781 41.6102 44.5779 40.8772 45.2196C39.5866 46.3464 37.9472 46.9644 36.253 46.9644C32.2943 46.9644 29.081 43.6535 29.081 39.5787C29.081 38.1037 29.4971 36.6853 30.2937 35.4692C30.8302 34.6469 30.6213 33.522 29.8122 32.9696C29.0137 32.4172 27.9214 32.6323 27.385 33.4655C26.2041 35.2778 25.5703 37.3945 25.5703 39.5914C25.5703 45.6481 30.3593 50.5798 36.2406 50.5798C38.7669 50.5798 41.2048 49.6573 43.1292 47.9781C43.8728 47.3254 43.9595 46.1877 43.3363 45.4329H43.3381Z" fill="#455468"/>
<path d="M32.5547 29.3047L32.5653 37.2429C32.5653 38.1326 33.2752 38.8637 34.1392 38.8637H43.7277L46.2647 47.0826C46.4718 47.77 47.095 48.2094 47.7625 48.2094C47.9147 48.2094 48.0794 48.1875 48.244 48.1309C49.0637 47.8611 49.524 46.9495 49.2603 46.1036L46.3745 36.7469C46.1673 36.0705 45.5548 35.6202 44.8767 35.6202H35.7042V32.5463H41.8157C42.6903 32.5463 43.3896 31.8262 43.3896 30.9255C43.3896 30.0249 42.6903 29.3047 41.8157 29.3047H35.7042" fill="#455468"/>
<path d="M34.0962 27.8974C35.9226 27.8974 37.4033 26.3726 37.4033 24.4917C37.4033 22.6107 35.9226 21.0859 34.0962 21.0859C32.2697 21.0859 30.7891 22.6107 30.7891 24.4917C30.7891 26.3726 32.2697 27.8974 34.0962 27.8974Z" fill="#455468"/>
</g>
<defs>
<filter id="filter0_d_448_17926" x="0.335938" y="0" width="78.3359" height="75.4766" filterUnits="userSpaceOnUse" color-interpolation-filters="sRGB">
<feFlood flood-opacity="0" result="BackgroundImageFix"/>
<feColorMatrix in="SourceAlpha" type="matrix" values="0 0 0 0 0 0 0 0 0 0 0 0 0 0 0 0 0 0 127 0" result="hardAlpha"/>
<feOffset dx="2" dy="2"/>
<feGaussianBlur stdDeviation="2"/>
<feComposite in2="hardAlpha" operator="out"/>
<feColorMatrix type="matrix" values="0 0 0 0 0 0 0 0 0 0 0 0 0 0 0 0 0 0 0.15 0"/>
<feBlend mode="normal" in2="BackgroundImageFix" result="effect1_dropShadow_448_17926"/>
<feBlend mode="normal" in="SourceGraphic" in2="effect1_dropShadow_448_17926" result="shape"/>
</filter>
</defs>
</svg>
