<svg width="21" height="22" viewBox="0 0 21 22" fill="none" xmlns="http://www.w3.org/2000/svg">
<path d="M17.1253 6.3382H12.9442V5.86396C12.9442 4.55721 11.902 3.4939 10.6212 3.4939H3.18734C1.90653 3.4939 0.864319 4.55721 0.864319 5.86396V11.0783C0.864319 12.3851 1.90653 13.4484 3.18734 13.4484H4.58068V14.87C4.58068 15.0617 4.69436 15.234 4.86768 15.3075C4.92508 15.3316 4.98587 15.3431 5.04552 15.3431C5.16707 15.3431 5.28524 15.2948 5.37415 15.2041L7.09615 13.4472H7.36851V13.9215C7.36851 15.2282 8.41072 16.2915 9.69153 16.2915H13.2154L14.9374 18.0484C15.0263 18.1391 15.1456 18.1874 15.266 18.1874C15.3257 18.1874 15.3865 18.1759 15.4439 18.1518C15.6172 18.0783 15.7309 17.906 15.7309 17.7143V16.2927H17.1242C18.405 16.2927 19.4472 15.2294 19.4472 13.9226V8.70826C19.4472 7.40151 18.405 6.3382 17.1242 6.3382H17.1253ZM5.97517 7.28668C5.97517 7.54849 5.76694 7.76093 5.51033 7.76093C5.25372 7.76093 5.04552 7.54849 5.04552 7.28668C5.04552 6.24174 5.8795 5.39086 6.9037 5.39086C7.92789 5.39086 8.76187 6.24174 8.76187 7.28668C8.76187 8.16857 8.16873 8.91151 7.36851 9.12279V9.65675C7.36851 9.91856 7.16031 10.131 6.9037 10.131C6.64708 10.131 6.43886 9.91856 6.43886 9.65675V8.70826C6.43886 8.44645 6.64708 8.23402 6.9037 8.23402C7.41579 8.23402 7.83335 7.80916 7.83335 7.28554C7.83335 6.76192 7.41692 6.33705 6.9037 6.33705C6.39047 6.33705 5.97404 6.76192 5.97404 7.28554L5.97517 7.28668ZM6.90482 11.5526C6.64821 11.5526 6.43998 11.3401 6.43998 11.0783C6.43998 10.8165 6.64821 10.6041 6.90482 10.6041C7.16143 10.6041 7.36963 10.8165 7.36963 11.0783C7.36963 11.3401 7.16143 11.5526 6.90482 11.5526ZM18.5198 13.9226C18.5198 14.7069 17.8952 15.3442 17.1265 15.3442H15.2683C15.0117 15.3442 14.8035 15.5566 14.8035 15.8184V16.5694L13.7376 15.4831C13.651 15.3947 13.5328 15.3442 13.409 15.3442H9.69265C8.92395 15.3442 8.29929 14.7069 8.29929 13.9226V13.4484H10.6223C11.9031 13.4484 12.9453 12.3851 12.9453 11.0783V7.28668H17.1265C17.8952 7.28668 18.5198 7.92398 18.5198 8.70826V13.9226Z" fill="#455468"/>
</svg>
