<svg width="16" height="17" viewBox="0 0 16 17" fill="none" xmlns="http://www.w3.org/2000/svg">
<path fill-rule="evenodd" clip-rule="evenodd" d="M15.9353 13.4901C15.9332 13.492 15.9312 13.4939 15.9291 13.4958C15.925 13.4997 15.9209 13.5035 15.9167 13.5071C15.9229 13.5018 15.929 13.4959 15.9353 13.4901ZM15.2634 3.5544C15.2803 3.56235 15.2972 3.5703 15.3142 3.57824C15.4009 3.61899 15.4876 3.65973 15.5744 3.70047C15.4871 3.6595 15.3999 3.61854 15.3127 3.57757C15.2963 3.56985 15.2798 3.56212 15.2634 3.5544ZM4.73336 1.47282C5.44541 1.13844 6.15746 0.804048 6.8695 0.469661L6.8795 0.464966C6.16412 0.800918 5.44874 1.13687 4.73336 1.47282ZM0.515524 13.9409C0.433879 13.9025 0.351563 13.865 0.269189 13.8275C0.249017 13.8183 0.228841 13.8091 0.208671 13.7999M3.64098 15.4087C3.03635 15.1246 2.43172 14.8406 1.82709 14.5567C2.42871 14.8391 3.03033 15.1218 3.63195 15.4045L3.64098 15.4087ZM11.5839 2.83114C11.7318 2.76167 11.8797 2.6922 12.0276 2.62273C11.5258 2.38602 11.0241 2.14951 10.522 1.91299L9.66812 2.31429L5.34279 4.34704L2.75937 5.56102V7.19666V8.14026C2.75937 8.16912 2.75757 8.19606 2.75589 8.22123C2.74953 8.31673 2.74486 8.3867 2.84641 8.43881C3.03186 8.53352 3.22228 8.62033 3.41243 8.70701C3.50689 8.75007 3.60129 8.79311 3.69497 8.83706L4.17656 9.06311C4.19942 9.07397 4.2318 9.08564 4.26728 9.09842C4.28342 9.10423 4.30019 9.11028 4.31701 9.11658C4.31779 9.10318 4.31869 9.08977 4.31959 9.07649C4.32185 9.04301 4.32405 9.01031 4.32405 8.98034V7.95245V6.42261C4.30547 6.33413 4.33598 6.24184 4.44024 6.18666C4.46 6.17334 4.48191 6.1625 4.50675 6.15488C4.71045 6.06127 4.9131 5.96545 5.11576 5.86963C5.21708 5.82172 5.31841 5.77382 5.41986 5.72619L9.76827 3.68373C10.3736 3.39962 10.9787 3.1154 11.5839 2.83114ZM7.03697 0.966352L5.71621 1.58647C5.09578 1.87788 4.47377 2.16661 3.85171 2.45536C2.67923 2.99962 1.50654 3.54398 0.343778 4.10653C1.05774 4.44209 1.77189 4.77746 2.48605 5.11283L2.48786 5.11368C2.76902 4.98164 3.0501 4.84954 3.33116 4.71745C3.52116 4.62815 3.71115 4.53886 3.90114 4.4496L9.39876 1.86599L9.92104 1.62053C9.83041 1.57794 9.73977 1.53538 9.64915 1.49283C9.51466 1.42968 9.38019 1.36654 9.2458 1.30334L8.16955 0.797954C8.1422 0.785134 8.11486 0.77119 8.0874 0.757191C7.95146 0.687874 7.81283 0.617188 7.65822 0.674654C7.51669 0.727188 7.37854 0.796732 7.24158 0.865678C7.17317 0.900116 7.10506 0.934406 7.03697 0.966352ZM7.51562 15.8684V10.9817V8.04968L7.5121 8.04803C6.62736 7.63263 5.74261 7.21723 4.85787 6.80164V8.45422C4.85787 8.54501 4.85872 8.63593 4.85957 8.72688C4.86126 8.90889 4.86296 9.09105 4.85787 9.27261C4.84731 9.64974 4.5312 9.80159 4.19475 9.64689C4.03384 9.57286 3.8703 9.50062 3.7062 9.42812C3.30253 9.24979 2.89544 9.06995 2.51564 8.85837C2.2257 8.69689 2.22572 8.42617 2.22574 8.14766L2.22574 8.14045V7.0903V5.5654C1.48888 5.21909 0.752016 4.87297 0.0149578 4.52686C0.0188975 4.68562 0.0139633 4.84653 0.00906339 5.00632C0.00544828 5.12421 0.00185188 5.24149 0.00185188 5.35685V7.52223V8.54612V11.9477V12.1669V12.8324V12.937C0.00185188 12.9578 0.00129433 12.9763 0.000793629 12.9929C-0.0019545 13.0841 -0.00299035 13.1184 0.0992657 13.1699C0.108411 13.1745 0.117556 13.179 0.126701 13.1835C0.140443 13.1902 0.154184 13.197 0.167925 13.204L0.170471 13.2049C0.180449 13.2087 0.189645 13.2123 0.19668 13.2158C0.385052 13.3041 0.573229 13.3925 0.761406 13.481C1.10932 13.6444 1.45726 13.8078 1.8052 13.9712C2.38669 14.2442 2.9682 14.5173 3.54963 14.7905L5.6808 15.7912C5.92253 15.9048 6.16438 16.0184 6.40624 16.1319C6.60866 16.2269 6.8111 16.3219 7.01349 16.417C7.01476 16.4176 7.01596 16.4182 7.01721 16.4189C7.01809 16.4193 7.01898 16.4198 7.01995 16.4203L7.51562 16.653V15.8684ZM5.22151 6.39749L7.78244 7.60006C8.06803 7.46591 8.35362 7.33176 8.6396 7.19762L12.9477 5.17419L15.218 4.10786C15.2176 4.10748 15.217 4.10729 15.2164 4.1071C14.7061 3.86756 14.196 3.62795 13.6858 3.38836C13.3417 3.22675 12.9976 3.06515 12.6535 2.90358L11.7705 3.31839C11.1437 3.61284 10.5168 3.90724 9.88993 4.20165C9.06003 4.59139 8.23016 4.98113 7.40041 5.37093C7.10554 5.50937 6.81109 5.64872 6.51663 5.78807C6.0854 5.99214 5.65415 6.19623 5.22151 6.39749ZM15.5632 13.0474C15.5646 13.0352 15.5652 13.0226 15.5665 13.0105C15.5648 12.9937 15.5634 12.9787 15.5632 12.9695V12.6029V11.8239V9.57744V7.1099V6.00475V5.0916C15.5632 5.00221 15.5646 4.91243 15.566 4.82251C15.5675 4.72104 15.5691 4.6194 15.5687 4.51791L14.9271 4.81931C13.4913 5.49385 12.0551 6.16839 10.619 6.84274L8.04944 8.04968V9.02506V13.9118V16.6535C8.06138 16.6476 8.0739 16.6416 8.08641 16.6357C8.40096 16.488 8.71589 16.3401 9.03043 16.1923C9.03121 16.1921 9.0318 16.1917 9.03238 16.1915C9.42818 16.0055 9.82411 15.8196 10.2201 15.6337C10.5188 15.4934 10.8175 15.3531 11.1162 15.2127C11.485 15.0396 11.8538 14.8663 12.2226 14.6931C12.7675 14.4372 13.3125 14.1812 13.8575 13.9253C14.2765 13.7284 14.6955 13.5316 15.1147 13.3349L15.4423 13.1809C15.4498 13.1773 15.4597 13.1733 15.4709 13.1691C15.4743 13.1673 15.4778 13.1654 15.4812 13.1636C15.4862 13.161 15.4912 13.1584 15.4959 13.1556C15.5285 13.136 15.5432 13.1273 15.5508 13.1144C15.5584 13.1014 15.5589 13.0842 15.5632 13.0474Z" fill="#891AEE"/>
</svg>
