<svg width="14" height="17" viewBox="0 0 14 17" fill="none" xmlns="http://www.w3.org/2000/svg">
<path fill-rule="evenodd" clip-rule="evenodd" d="M6.89369 16.5927C6.76532 16.5927 6.63635 16.5548 6.52632 16.4779C0.479772 12.2925 0 8.22006 0 3.33005C0 3.02066 0.219476 2.75326 0.52414 2.69588C3.80682 2.06762 6.49142 0.168647 6.51804 0.149125C6.74284 -0.0117851 7.04573 -0.0117851 7.26994 0.149125C7.29656 0.168055 9.98115 2.06762 13.2638 2.69588C13.5685 2.75385 13.788 3.02066 13.788 3.33005C13.788 8.22006 13.3076 12.2925 7.26165 16.4779C7.15103 16.5548 7.02206 16.5927 6.89369 16.5927ZM3.59765 8.2385C3.83267 7.9384 4.26647 7.88565 4.56657 8.12068L5.99199 9.23701L9.21893 5.76984C9.47863 5.49081 9.91534 5.47514 10.1944 5.73483C10.4734 5.99452 10.4891 6.43124 10.2294 6.71026L6.57571 10.6359C6.51369 10.7042 6.44058 10.7573 6.3613 10.7949C6.31575 10.8165 6.26827 10.8328 6.21978 10.8439C6.02396 10.8887 5.81034 10.8481 5.63987 10.7145L3.71547 9.20742C3.41537 8.97239 3.36262 8.53859 3.59765 8.2385Z" fill="#891AEE"/>
</svg>
