<svg width="15" height="14" viewBox="0 0 15 14" fill="none" xmlns="http://www.w3.org/2000/svg">
<path fill-rule="evenodd" clip-rule="evenodd" d="M1.32963 10.4952C0.595297 11.2431 0.606303 12.4447 1.35422 13.1791C2.10213 13.9134 3.30373 13.9024 4.03807 13.1545L6.16753 10.9857L8.72734 12.4636C9.30755 12.7985 9.97864 12.942 10.6451 12.8735C10.3712 12.262 9.91146 11.7526 9.33125 11.4176L7.04147 10.0956L13.7849 3.22748C14.5192 2.47957 14.5082 1.27797 13.7603 0.543631C13.0124 -0.190704 11.8108 -0.179697 11.0764 0.568215L11.0508 0.594382H3.99665C2.54752 0.594382 1.14026 1.08042 0 1.97474C1.14026 2.86905 2.54752 3.35509 3.99665 3.35509H8.34016L3.67541 8.10609C3.50885 8.06368 3.32282 7.9859 3.1058 7.84121C2.53619 7.46147 2.59338 6.97727 2.64512 6.53927C2.68741 6.18121 2.72606 5.85403 2.41562 5.64006C1.72544 5.16435 0.996178 5.64006 0.996178 5.64006C0.996178 5.64006 1.02996 8.37532 1.83716 9.97832L1.32963 10.4952ZM13.1133 1.62967C13.1133 1.82026 12.9588 1.97476 12.7683 1.97476C12.5777 1.97476 12.4232 1.82026 12.4232 1.62967C12.4232 1.43908 12.5777 1.28458 12.7683 1.28458C12.9588 1.28458 13.1133 1.43908 13.1133 1.62967ZM2.4156 12.3274C2.60618 12.3274 2.76069 12.1729 2.76069 11.9823C2.76069 11.7917 2.60618 11.6372 2.4156 11.6372C2.22501 11.6372 2.07051 11.7917 2.07051 11.9823C2.07051 12.1729 2.22501 12.3274 2.4156 12.3274Z" fill="#891AEE"/>
</svg>
