<svg width="15" height="16" viewBox="0 0 15 16" fill="none" xmlns="http://www.w3.org/2000/svg">
<path fill-rule="evenodd" clip-rule="evenodd" d="M7.5 0.653564C6.01664 0.653564 4.56659 1.09343 3.33323 1.91754C2.09986 2.74165 1.13856 3.91299 0.570907 5.28344C0.00324966 6.65388 -0.145275 8.16188 0.144114 9.61674C0.433503 11.0716 1.14781 12.408 2.1967 13.4569C3.2456 14.5058 4.58197 15.2201 6.03682 15.5094C7.49168 15.7988 8.99968 15.6503 10.3701 15.0827C11.7406 14.515 12.9119 13.5537 13.736 12.3203C14.5601 11.087 15 9.63692 15 8.15356C14.9978 6.1651 14.207 4.2587 12.8009 2.85265C11.3949 1.4466 9.48846 0.655726 7.5 0.653564ZM9.51167 10.0441C9.51167 9.2869 8.7935 8.65656 7.85167 8.52906V11.5589C8.7935 11.4307 9.51167 10.8006 9.51167 10.0441ZM5.48834 6.26306C5.48834 7.02023 6.206 7.65056 7.14833 7.77806V4.74823C6.206 4.8764 5.48834 5.50656 5.48834 6.26306ZM9.51167 6.26306C9.51167 6.35624 9.54868 6.4456 9.61457 6.51149C9.68046 6.57738 9.76982 6.6144 9.863 6.6144C9.95618 6.6144 10.0455 6.57738 10.1114 6.51149C10.1773 6.4456 10.2143 6.35624 10.2143 6.26306C10.209 5.94947 10.132 5.64125 9.98912 5.36204C9.84626 5.08282 9.64138 4.84002 9.39017 4.65223C8.94598 4.30603 8.41228 4.09367 7.85167 4.04006V3.53123C7.85167 3.43796 7.81462 3.34851 7.74867 3.28256C7.68272 3.21661 7.59327 3.17956 7.5 3.17956C7.40673 3.17956 7.31729 3.21661 7.25134 3.28256C7.18538 3.34851 7.14833 3.43796 7.14833 3.53123V4.04006C6.58749 4.09354 6.05354 4.30591 5.60917 4.65223C5.35799 4.84004 5.15312 5.08285 5.01027 5.36206C4.86741 5.64127 4.79036 5.94948 4.785 6.26306C4.79037 6.57677 4.86742 6.88508 5.01027 7.16443C5.15312 7.44377 5.35798 7.68673 5.60917 7.87473C6.0534 8.2213 6.58742 8.4337 7.14833 8.4869V11.5589C6.206 11.4307 5.48834 10.8006 5.48834 10.0441C5.48834 9.95079 5.45128 9.86135 5.38533 9.7954C5.31938 9.72945 5.22994 9.6924 5.13667 9.6924C5.0434 9.6924 4.95395 9.72945 4.888 9.7954C4.82205 9.86135 4.785 9.95079 4.785 10.0441C4.79036 10.3576 4.86741 10.6659 5.01027 10.9451C5.15312 11.2243 5.35799 11.4671 5.60917 11.6549C6.05344 12.0013 6.58748 12.2135 7.14833 12.2664V12.7759C7.14833 12.8692 7.18538 12.9586 7.25134 13.0246C7.31729 13.0905 7.40673 13.1276 7.5 13.1276C7.59327 13.1276 7.68272 13.0905 7.74867 13.0246C7.81462 12.9586 7.85167 12.8692 7.85167 12.7759V12.2664C8.41229 12.2133 8.94608 12.0012 9.39017 11.6549C9.64528 11.4707 9.85302 11.2287 9.99629 10.9485C10.1396 10.6684 10.2143 10.3583 10.2143 10.0436C10.2143 9.72901 10.1396 9.41888 9.99629 9.13876C9.85302 8.85864 9.64528 8.61655 9.39017 8.4324C8.94603 8.08624 8.41226 7.87414 7.85167 7.82106V4.74823C8.7935 4.8764 9.51167 5.50656 9.51167 6.26306Z" fill="#891AEE"/>
</svg>
