<svg width="21" height="22" viewBox="0 0 21 22" fill="none" xmlns="http://www.w3.org/2000/svg">
<path fill-rule="evenodd" clip-rule="evenodd" d="M10.3719 6.36035C14.7029 6.36035 18.3482 9.75907 19.4472 10.898C18.3482 12.037 14.7029 15.4357 10.3719 15.4357C6.04076 15.4357 2.39554 12.037 1.29648 10.898C2.39554 9.75907 6.04076 6.36035 10.3719 6.36035ZM10.3719 8.06199C8.77119 8.06199 7.47298 9.33298 7.47298 10.898C7.47298 12.4631 8.77213 13.7341 10.3719 13.7341C11.9716 13.7341 13.2707 12.4631 13.2707 10.898C13.2707 9.33298 11.9716 8.06199 10.3719 8.06199ZM10.3719 9.19641C11.3323 9.19641 12.1112 9.95846 12.1112 10.898C12.1112 11.8376 11.3323 12.5997 10.3719 12.5997C9.41146 12.5997 8.63253 11.8376 8.63253 10.898C8.63253 9.95846 9.41146 9.19641 10.3719 9.19641Z" fill="#455468"/>
</svg>
