<svg width="47" height="44" viewBox="0 0 47 44" fill="none" xmlns="http://www.w3.org/2000/svg">
<g clip-path="url(#clip0_319_33433)">
<path d="M42.5558 3.7201L46.3367 3.88147L36.8473 13.568L42.5558 3.7201ZM23.5771 5.995C20.2639 11.6573 17.0136 17.2139 13.6756 22.9175C20.1558 21.1682 26.4211 19.4759 32.8341 17.7451C29.7138 13.7851 26.6842 9.93931 23.5771 5.995ZM26.9283 33.6323C28.9203 28.6341 30.8582 23.7715 32.8604 18.749C26.4167 20.4884 20.1733 22.1749 13.7618 23.9072C18.2281 27.206 22.5351 30.3877 26.9283 33.6323ZM33.5458 20.1557C33.3032 20.3413 33.1834 20.5598 33.0928 20.7897C31.0657 25.8793 29.0518 30.9732 26.9999 36.0528C26.7792 36.5984 26.9034 36.8326 27.3638 37.1267C30.7193 39.2674 34.0574 41.4309 37.5795 43.703C36.2174 35.7572 34.8816 27.9572 33.5444 20.1571L33.5458 20.1557ZM6.05983 10.1992C8.28566 14.3963 10.4413 18.4634 12.6686 22.6633C14.9105 18.8318 17.0604 15.156 19.3067 11.3174C14.8097 10.9375 10.5115 10.5748 6.05837 10.1992H6.05983ZM1.03235 14.135H7.02733C6.37259 12.8825 5.75877 11.7115 5.07918 10.4134C3.69224 11.6887 2.39298 12.8825 1.03235 14.135ZM43.5117 0.237061C41.5518 0.792576 39.7732 1.29668 37.9946 1.80079C37.0081 2.03785 36.0157 2.25634 35.0351 2.51482C32.3401 3.22599 29.6495 3.95145 26.959 4.67976C26.1361 4.90254 25.3192 5.14959 24.3824 5.4195C27.507 9.38665 30.5323 13.2267 33.6218 17.1467C34.5879 15.4902 35.4823 13.9522 36.384 12.417C37.6467 10.2663 38.9168 8.12139 40.1751 5.96787C40.4133 5.56087 40.6048 5.12817 40.8167 4.70689C41.6848 3.26883 42.5515 1.82935 43.5117 0.238489V0.237061Z" stroke="#891AEE" stroke-miterlimit="10" stroke-linejoin="round"/>
</g>
<defs>
<clipPath id="clip0_319_33433">
<rect width="46" height="44" fill="white" transform="translate(0.664062)"/>
</clipPath>
</defs>
</svg>
